<?xml version="1.0" encoding="UTF-8" standalone="no"?>
<svg
   width="256"
   height="256"
   viewBox="0 0 256 256"
   fill="none"
   version="1.1"
   id="svg7"
   sodipodi:docname="AppIcon.svg"
   xml:space="preserve"
   inkscape:version="1.4.2 (f4327f4, 2025-05-13)"
   xmlns:inkscape="http://www.inkscape.org/namespaces/inkscape"
   xmlns:sodipodi="http://sodipodi.sourceforge.net/DTD/sodipodi-0.dtd"
   xmlns="http://www.w3.org/2000/svg"
   xmlns:svg="http://www.w3.org/2000/svg"><sodipodi:namedview
     id="namedview7"
     pagecolor="#ffffff"
     bordercolor="#000000"
     borderopacity="0.25"
     inkscape:showpageshadow="2"
     inkscape:pageopacity="0.0"
     inkscape:pagecheckerboard="0"
     inkscape:deskcolor="#d1d1d1"
     inkscape:zoom="3.2372232"
     inkscape:cx="157.07907"
     inkscape:cy="86.184975"
     inkscape:window-width="2560"
     inkscape:window-height="1476"
     inkscape:window-x="-12"
     inkscape:window-y="-12"
     inkscape:window-maximized="1"
     inkscape:current-layer="g10" /><defs
     id="defs5"><linearGradient
       id="folderGradient"
       x1="128"
       y1="40"
       x2="128"
       y2="230"
       gradientUnits="userSpaceOnUse"><stop
         offset="0"
         stop-color="#4facfe"
         id="stop1" /><stop
         offset="1"
         stop-color="#00f2fe"
         id="stop2" /></linearGradient><linearGradient
       id="folderBackGradient"
       x1="128"
       y1="20"
       x2="128"
       y2="200"
       gradientUnits="userSpaceOnUse"><stop
         offset="0"
         stop-color="#0061ff"
         id="stop3" /><stop
         offset="1"
         stop-color="#60efff"
         id="stop4" /></linearGradient><filter
       id="dropShadow"
       x="-0.033333333"
       y="-0.051798561"
       width="1.0666667"
       height="1.1323741"><feGaussianBlur
         in="SourceAlpha"
         stdDeviation="3"
         id="feGaussianBlur4" /><feOffset
         dx="0"
         dy="4"
         result="offsetblur"
         id="feOffset4" /><feComponentTransfer
         id="feComponentTransfer4"><feFuncA
           type="linear"
           slope="0.3"
           id="feFuncA4" /></feComponentTransfer><feMerge
         id="feMerge5"><feMergeNode
           in="offsetblur"
           id="feMergeNode4" /><feMergeNode
           in="SourceGraphic"
           id="feMergeNode5" /></feMerge></filter></defs><path
     d="M20 60 C 20 48, 20 48, 32 48 L 90 48 C 100 48, 105 50, 115 60 L 130 75 L 224 75 C 236 75, 236 75, 236 87 L 236 210 C 236 222, 236 222, 224 222 L 32 222 C 20 222, 20 222, 20 210 Z"
     fill="url(#folderBackGradient)"
     id="path5" /><path
     d="M20 95 C 20 83, 20 83, 32 83 L 224 83 C 236 83, 236 83, 236 95 L 236 210 C 236 222, 236 222, 224 222 L 32 222 C 20 222, 20 222, 20 210 Z"
     fill="url(#folderGradient)"
     filter="url(#dropShadow)"
     id="path6" /><g
     transform="matrix(0.24408185,0,0,0.24408185,70.742372,89.363226)"
     id="g10">
	<path
   style="fill:#e2e3e5"
   d="m 466.70009,210.55159 h -25.6 c -5.486,-21.943 -13.714,-42.057 -24.686,-60.343 l 18.286,-18.286 c 6.4,-6.4 6.4,-16.457 0,-22.857 l -42.057,-42.057003 c -6.4,-6.4 -16.457,-6.4 -22.857,0 l -18.286,18.286 c -18.286,-11.886 -38.4,-20.114 -60.343,-24.686 v -25.6 c 0,-9.143 -7.314,-16.457 -16.457,-16.457 h -58.514 c -9.143,0 -16.457,7.314 -16.457,16.457 v 25.6 c -21.943,5.486 -42.057,13.714 -60.343,24.686 l -18.286,-18.286 c -6.4,-6.4 -16.457,-6.4 -22.856995,0 l -42.057,42.057003 c -6.4,6.4 -6.4,16.457 0,22.857 l 18.286,18.286 c -11.886,18.286 -20.114,38.4 -24.686,60.343 h -25.6 c -9.143,0 -16.4570003,7.314 -16.4570003,16.457 v 58.514 c 0,9.143 7.3140003,16.457 16.4570003,16.457 h 25.6 c 5.486,21.943 13.714,42.057 24.686,60.343 l -18.286,18.286 c -6.4,6.4 -6.4,16.457 0,22.857 l 42.057,42.057 c 6.399995,6.4 16.456995,6.4 22.856995,0 l 18.286,-18.286 c 18.286,11.886 38.4,20.114 60.343,24.686 v 25.6 c 0,9.143 7.314,16.457 16.457,16.457 h 58.514 c 9.143,0 16.457,-7.314 16.457,-16.457 v -25.6 c 21.943,-5.486 42.057,-13.714 60.343,-24.686 l 18.286,18.286 c 6.4,6.4 16.457,6.4 22.857,0 l 42.057,-42.057 c 6.4,-6.4 6.4,-16.457 0,-22.857 l -18.286,-18.286 c 11.886,-18.286 20.114,-38.4 24.686,-60.343 h 25.6 c 9.143,0 16.457,-7.314 16.457,-16.457 v -58.514 c 0,-9.143 -7.314,-16.457 -16.457,-16.457"
   id="path1" />
	<path
   style="fill:#cccccc"
   d="m 439.27109,210.55159 h -25.6 c -5.486,-21.943 -13.714,-42.057 -24.686,-60.343 l 18.286,-18.286 c 6.4,-6.4 6.4,-16.457 0,-22.857 l -42.057,-42.057003 c -6.4,-6.4 -16.457,-6.4 -22.857,0 l -18.286,18.286 c -18.286,-11.886 -38.4,-20.114 -60.343,-24.686 v -25.6 c 0,-9.143 -7.314,-16.457 -16.457,-16.457 h -58.514 c -9.143,0 -16.457,7.314 -16.457,16.457 v 25.6 c -21.943,5.486 -42.057,13.714 -60.343,24.686 l -18.285995,-18.286 c -6.4,-6.4 -16.457,-6.4 -22.857,0 l -42.057,42.057003 c -6.4,6.4 -6.4,16.457 0,22.857 l 18.286,18.286 c -11.886,18.286 -20.115,38.4 -24.686,60.343 H -3.2429053 c -9.1429997,0 -16.4569997,7.314 -16.4569997,16.457 v 58.514 c 0,9.143 7.314,16.457 16.4569997,16.457 H 22.357095 c 5.486,21.943 13.714,42.057 24.686,60.343 l -18.286,18.286 c -6.4,6.4 -6.4,16.457 0,22.857 l 42.057,42.057 c 6.4,6.4 16.457,6.4 22.857,0 l 18.285995,-18.286 c 18.286,11.886 38.4,20.114 60.343,24.686 v 25.6 c 0,9.143 7.314,16.457 16.457,16.457 h 58.514 c 9.143,0 16.457,-7.314 16.457,-16.457 v -25.6 c 21.943,-5.486 42.057,-13.714 60.343,-24.686 l 18.286,18.286 c 6.4,6.4 16.457,6.4 22.857,0 l 42.057,-42.057 c 6.4,-6.4 6.4,-16.457 0,-22.857 l -18.286,-18.286 c 11.886,-18.286 20.114,-38.4 24.686,-60.343 h 25.6 c 9.143,0 16.457,-7.314 16.457,-16.457 v -58.514 c 0,-9.143 -7.314,-16.457 -16.457,-16.457"
   id="path2" />
	<path
   style="fill:#e2e3e5"
   d="m 411.84309,210.55159 h -25.6 c -5.486,-21.943 -13.714,-42.057 -24.686,-60.343 l 18.286,-18.286 c 6.4,-6.4 6.4,-16.457 0,-22.857 l -42.057,-42.057003 c -6.4,-6.4 -12.8,9.143 -19.2,15.543 l -18.286,-9.143 c -18.286,-11.886 -14.629,-8.229 -36.571,-12.8 v -25.6 c 0,-9.143 -7.314,-16.457 -16.457,-16.457 h -58.515 c -9.143,0 -16.457,7.314 -16.457,16.457 v 25.6 c -21.943,5.486 -42.057,13.714 -60.343,24.686 l -18.285995,-18.286 c -6.4,-6.4 -16.457,-6.4 -22.857,0 l -42.057,42.057003 c -6.4,6.4 -6.4,16.457 0,22.857 l 18.286,18.286 c -11.886,18.286 -20.115,38.4 -24.686,60.343 H -3.2429053 c -9.1429997,0 -16.4569997,7.314 -16.4569997,16.457 v 58.514 c 0,9.143 7.314,16.457 16.4569997,16.457 H 22.357095 c 5.486,21.943 13.714,42.057 24.686,60.343 l -18.286,18.286 c -6.4,6.4 -6.4,16.457 0,22.857 l 42.057,42.057 c 6.4,6.4 16.457,6.4 22.857,0 l 18.285995,-18.286 c 18.286,11.886 38.4,20.114 60.343,24.686 v 25.6 c 0,9.143 7.314,16.457 16.457,16.457 h 58.514 c 9.143,0 16.457,-7.314 16.457,-16.457 v -25.6 c 21.943,-5.486 18.286,-1.829 36.571,-12.8 18.286,-5.486 39.314,4.571 55.771,-11.886 l 23.771,-23.771 c 6.4,-6.4 6.4,-16.457 0,-22.857 l -18.284,-18.286 c 11.886,-18.286 20.114,-38.4 24.686,-60.343 h 25.6 c 9.143,0 16.457,-7.314 16.457,-16.457 v -58.514 c 0,-9.143 -7.314,-16.457 -16.457,-16.457"
   id="path3" />
	<path
   style="fill:#e0e0e0"
   d="m 336.87109,256.26559 c 0,65.829 -53.029,118.857 -118.857,118.857 -65.828,0 -118.856995,-53.028 -118.856995,-118.857 0,-65.829 53.028995,-118.857 118.856995,-118.857 65.828,0 118.857,53.028 118.857,118.857"
   id="path4" />
	<path
   style="fill:#ffffff"
   d="M -3.2429053,301.97959 H 22.357095 c 5.486,21.943 13.714,42.057 24.686,60.343 l -18.286,18.286 c -6.4,6.4 -6.4,16.457 0,22.857 l 42.057,42.057 c 6.4,6.4 16.457,6.4 22.857,0 l 1.829,-1.829 -39.314,-39.314 c -6.4,-6.4 -6.4,-16.457 0,-22.857 l 18.286,-18.286 c -11.886,-18.286 -20.114,-38.4 -24.686,-60.343 h -25.6 c -9.143,0 -16.4570003,-7.314 -16.4570003,-16.457 v -58.514 c 0,-9.143 7.3140003,-16.457 16.4570003,-16.457 h 25.6 c 5.486,-21.943 13.714,-42.057 24.686,-60.343 l -18.286,-18.286 c -6.4,-6.4 -6.4,-16.457 0,-22.857 l 23.771,-23.771003 c 6.4,-6.4 14.629,-9.143 21.942995,-10.057 l -8.228995,-8.229 c -6.4,-6.4 -16.457,-6.4 -22.857,0 l -42.057,41.143003 c -6.4,6.4 -6.4,16.457 0,22.857 l 18.286,18.286 c -11.886,18.286 -20.115,38.4 -24.686,60.343 H -3.2429053 c -9.1429997,0 -16.4569997,7.314 -16.4569997,16.457 v 58.514 c 0,9.143 7.314,16.457 16.4569997,16.457"
   id="path5-0" />
	<path
   style="fill:#f0f0f0"
   d="m 300.30009,256.26559 c 0,45.714 -36.571,82.286 -82.286,82.286 -45.715,0 -82.286,-36.572 -82.286,-82.286 0,-45.714 36.571,-82.286 82.286,-82.286 45.715,0 82.286,36.572 82.286,82.286"
   id="path6-9" />
	<g
   id="g9"
   transform="translate(-27.842905,1.2655866)">
		<path
   style="fill:#b6b6b6"
   d="m 245.857,383 c -70.4,0 -128,-57.6 -128,-128 0,-70.4 57.6,-128 128,-128 70.4,0 128,57.6 128,128 0,70.4 -57.6,128 -128,128 z m 0,-237.714 c -60.343,0 -109.714,49.371 -109.714,109.714 0,60.343 49.371,109.714 109.714,109.714 60.343,0 109.714,-49.371 109.714,-109.714 0,-60.343 -49.371,-109.714 -109.714,-109.714 z"
   id="path7" />
		<path
   style="fill:#b6b6b6"
   d="M 275.114,501.857 H 216.6 c -13.714,0 -25.6,-10.971 -25.6,-25.6 V 457.971 C 173.629,453.4 157.171,446.085 140.714,436.942 l -12.8,12.8 c -4.571,4.571 -10.971,7.314 -18.286,7.314 v 0 c -6.4,0 -12.8,-2.743 -18.286,-7.314 L 49.285,407.685 c -10.057,-10.057 -10.057,-25.6 0,-35.657 l 12.8,-12.8 c -9.143,-15.543 -15.543,-32 -21.029,-50.286 H 22.771 C 9.971,309.857 -1,298.886 -1,284.257 v -58.514 c 0,-13.714 10.971,-25.6 25.6,-25.6 h 18.286 c 4.571,-17.371 11.886,-33.829 21.029,-50.286 l -12.8,-12.8 C 41.058,127 41.058,111.457 51.115,101.4 L 93.172,59.343 c 10.057,-10.057 26.514,-10.057 35.657,0 l 12.8,12.8 C 157.172,63 173.629,56.6 191.915,51.114 V 32.829 C 191,19.114 201.971,8.143 216.6,8.143 h 58.514 c 14.629,0 25.6,10.971 25.6,25.6 V 52.029 C 318.086,56.6 334.543,63.914 351,73.057 l 12.8,-12.8 c 4.571,-4.571 10.971,-7.314 18.286,-7.314 v 0 c 6.4,0 12.8,2.743 18.286,7.314 l 42.057,42.057 c 10.057,10.057 10.057,25.6 0,35.657 l -12.8,12.8 c 9.143,15.543 15.543,32 21.029,50.286 h 18.286 c 13.714,0 25.6,10.971 25.6,25.6 v 58.514 c 0,13.714 -10.971,25.6 -25.6,25.6 h -18.286 c -4.571,17.371 -11.886,33.829 -21.029,50.286 l 12.8,12.8 c 10.057,10.057 10.057,25.6 0,35.657 l -42.057,42.057 c -4.571,4.571 -10.971,7.314 -18.286,7.314 v 0 c -6.4,0 -12.8,-2.743 -18.286,-7.314 l -12.8,-12.8 c -15.543,9.143 -32,15.543 -50.286,21.029 v 18.286 c 0,12.8 -10.971,23.771 -25.6,23.771 z M 139.8,416.829 c 1.829,0 3.657,0 4.571,1.829 18.286,10.971 37.486,19.2 57.6,23.771 4.571,0.914 7.314,4.571 7.314,9.143 v 25.6 c 0,3.657 2.743,7.314 7.314,7.314 h 58.514 c 3.657,0 7.314,-3.657 7.314,-7.314 v -25.6 c 0,-4.571 2.743,-8.229 7.314,-9.143 20.114,-4.571 40.229,-12.8 57.6,-23.771 3.657,-1.829 8.229,-1.829 10.971,0.914 l 18.286,18.286 c 0.914,0.914 2.743,1.829 5.486,1.829 v 0 c 1.829,0 3.657,-0.914 5.486,-1.829 l 42.057,-42.057 c 2.743,-2.743 2.743,-7.314 0,-10.057 l -18.286,-18.286 c -2.743,-2.743 -3.657,-7.314 -0.914,-10.971 10.971,-17.371 19.2,-37.486 23.771,-57.6 0.914,-4.571 4.571,-7.314 9.143,-7.314 h 25.6 c 3.657,0 7.314,-3.657 7.314,-7.314 v -58.514 c 0,-3.657 -2.743,-7.314 -7.314,-7.314 h -25.6 c -4.571,0 -8.229,-2.743 -9.143,-7.314 -4.571,-20.114 -12.8,-40.229 -23.771,-57.6 -1.829,-3.657 -1.829,-8.229 0.914,-10.971 l 18.286,-18.286 c 2.743,-2.743 2.743,-7.314 0,-10.057 L 386.656,72.146 c -0.914,-0.914 -2.743,-1.829 -5.486,-1.829 v 0 c -1.829,0 -3.657,0.914 -4.571,1.829 l -18.286,18.286 c -2.743,2.743 -7.314,3.657 -10.971,0.914 -18.286,-10.057 -37.486,-18.286 -57.6,-22.857 -4.571,-1.829 -7.314,-5.486 -7.314,-9.143 v -25.6 c 0,-3.657 -2.743,-7.314 -7.314,-7.314 H 216.6 c -3.657,0 -7.314,3.657 -7.314,7.314 v 25.6 c 0,4.571 -2.743,8.229 -7.314,9.143 -20.114,4.571 -39.314,12.8 -57.6,23.771 -3.657,1.829 -8.229,1.829 -10.971,-1.829 L 115.115,72.145 c -2.743,-2.743 -7.314,-2.743 -10.057,0 L 63,114.2 c -2.743,2.743 -2.743,7.314 0,10.057 l 18.286,18.286 c 2.743,2.743 3.657,7.314 0.914,10.971 -10.057,18.286 -18.286,37.486 -22.857,57.6 -1.829,4.571 -5.486,7.314 -9.143,7.314 H 24.6 c -3.657,0 -7.314,3.657 -7.314,7.314 v 58.514 c 0,3.657 3.657,7.314 7.314,7.314 h 25.6 c 4.571,0 8.229,2.743 9.143,7.314 4.571,20.114 12.8,39.314 23.771,57.6 1.829,3.657 1.829,8.229 -1.829,10.971 L 63,385.743 c -2.743,2.743 -2.743,7.314 0,10.057 l 42.057,42.057 c 0.914,0.914 2.743,1.829 5.486,1.829 v 0 c 1.829,0 3.657,-0.914 5.486,-1.829 l 18.286,-18.286 c 0.914,-1.828 2.742,-2.742 5.485,-2.742 z"
   id="path8" />
		<path
   style="fill:#b6b6b6"
   d="m 245.857,346.429 c -50.286,0 -91.429,-41.143 -91.429,-91.429 0,-50.286 41.143,-91.429 91.429,-91.429 50.286,0 91.429,41.143 91.429,91.429 0,50.286 -41.143,91.429 -91.429,91.429 z m 0,-164.572 c -40.229,0 -73.143,32.914 -73.143,73.143 0,40.229 32.914,73.143 73.143,73.143 40.229,0 73.143,-32.914 73.143,-73.143 0,-40.229 -32.914,-73.143 -73.143,-73.143 z"
   id="path9" />
	</g>
</g></svg>
